<?xml version="1.0" encoding="utf-8"?>
<!-- Generator: Adobe Illustrator 27.3.1, SVG Export Plug-In . SVG Version: 6.00 Build 0)  -->
<svg version="1.1" id="Layer_1" xmlns="http://www.w3.org/2000/svg" xmlns:xlink="http://www.w3.org/1999/xlink" x="0px" y="0px"
	 viewBox="0 0 200 200" enable-background="new 0 0 200 200" xml:space="preserve">
<g>
	<path fill="#F5F7F8" d="M169.0664,108.5644c-1.4736-1.271-3.5659-1.5635-5.3311-0.7471l-32.9321,15.2217l0.063,0.208
		c0.2432,0.8052,0.3662,1.6362,0.3662,2.4692c0,4.7275-3.8462,8.5737-8.5737,8.5737H93.3662c-0.9648,0-1.75-0.7852-1.75-1.75
		s0.7852-1.75,1.75-1.75h29.2925c2.7979,0,5.0737-2.2759,5.0737-5.0737s-2.2759-5.0742-5.0737-5.0742H102.354
		c-0.8428,0-1.5664-0.6016-1.7207-1.4312c-0.1235-0.6484-3.2051-15.8779-18.9175-15.8779c-5.8857,0-11.3677,2.6431-15.04,7.252
		c-0.334,0.4189-0.833,0.6592-1.3687,0.6592h-9.6357v31.6953h8.9019c0.1699,0,0.3389,0.0249,0.5024,0.0737l37.3315,11.1743
		c2.0962,0.627,4.2559,0.9341,6.4072,0.9341c4.7671,0,9.4922-1.5083,13.3892-4.3877l46.5708-34.4058
		c1.2227-0.9033,1.9565-2.293,2.0137-3.8125C170.8452,110.9971,170.2178,109.5566,169.0664,108.5644z"/>
	<g>
		<path fill="#FF8092" d="M121.3922,100.8253L121.3922,100.8253c-6.3777-6.3776-6.3777-16.7178,0-23.0955l22.3746-22.3746
			c6.3776-6.3776,16.7178-6.3776,23.0954,0l0,0c6.3776,6.3776,6.3776,16.7178,0,23.0954l-22.3746,22.3746
			C138.11,107.2029,127.7699,107.2029,121.3922,100.8253z"/>
	</g>
	<g>
		<path fill="#F95F7C" d="M170.1118,73.7764c-11.6064,8.2939-37.392,24.0073-53.3114,13.127
			c-0.7213,4.9312,0.7969,10.127,4.5918,13.9219h0.0001c6.3776,6.3776,16.7178,6.3776,23.0955,0l22.3746-22.3746
			C168.2564,77.0564,169.3272,75.4664,170.1118,73.7764z"/>
	</g>
	<g>
		<circle fill="#29F1A6" cx="99.767" cy="60.3079" r="17.1988"/>
	</g>
	<g>
		<path fill="#1CC983" d="M116.8383,58.321c-7.353,3.381-23.0448,9.6442-33.515,7.0169c0.7956,2.6091,2.219,5.0679,4.2824,7.1313
			c6.7165,6.7166,17.6062,6.7166,24.3228,0C115.7933,68.6044,117.4212,63.3592,116.8383,58.321z"/>
	</g>
	<g>
		<path fill="#1CA0F2" d="M48.0925,149.5161H33.2874c-3.2192,0-5.829-2.6097-5.829-5.829v-34.9436
			c0-3.2193,2.6097-5.829,5.829-5.829h14.8051c3.2192,0,5.829,2.6097,5.829,5.829v34.9436
			C53.9215,146.9064,51.3118,149.5161,48.0925,149.5161z"/>
	</g>
	<g>
		<path fill="#1487C1" d="M53.9215,143.6872V119.869c-4.9932,6.2294-17.6719,20.1064-26.4631,12.8185v10.9997
			c0,3.2192,2.6097,5.829,5.829,5.829h14.8051C51.3117,149.5162,53.9215,146.9064,53.9215,143.6872z"/>
	</g>
	<path fill="#455A64" d="M168.2764,53.9409c-7.1475-7.1475-18.7764-7.1475-25.9238,0l-22.3745,22.375
		c-7.1475,7.147-7.1475,18.7764,0,25.9233c3.5737,3.5737,8.2676,5.3608,12.9619,5.3608s9.3882-1.7871,12.9619-5.3608
		l22.3745-22.3745C175.4234,72.7178,175.4234,61.0884,168.2764,53.9409z M143.0738,99.4111c-5.5879,5.5879-14.6797,5.5879-20.2676,0
		c-5.5874-5.5879-5.5874-14.6792,0-20.2671L133.163,68.787l20.2675,20.2675L143.0738,99.4111z M165.4483,77.0366l-9.1897,9.1897
		l-20.2675-20.2675l9.1896-9.1898c2.7944-2.7939,6.4634-4.1904,10.1338-4.1904c3.6694,0,7.3403,1.3975,10.1338,4.1904
		C171.0357,62.3569,171.0357,71.4492,165.4483,77.0366z"/>
	<path fill="#455A64" d="M113.3423,46.7324c-0.0871-0.0871-0.1827-0.1599-0.2711-0.2449c-0.0401-0.0484-0.0737-0.1004-0.1191-0.1458
		c-0.1058-0.106-0.2218-0.1947-0.3431-0.2719c-7.5269-6.7935-19.1678-6.5872-26.4176,0.6625
		c-7.2505,7.2509-7.456,18.8928-0.6606,26.4197c0.0768,0.1204,0.1653,0.2354,0.2704,0.3405
		c0.0443,0.0443,0.0951,0.077,0.1423,0.1163c0.0861,0.0894,0.1597,0.1862,0.2479,0.2744c3.626,3.6265,8.4473,5.6235,13.5757,5.6235
		c5.1279,0,9.9492-1.9971,13.5752-5.6235c3.6265-3.626,5.6235-8.4473,5.6235-13.5752
		C118.9659,55.1797,116.9688,50.3584,113.3423,46.7324z M89.0196,49.5605c2.9634-2.9629,6.855-4.4443,10.7476-4.4443
		c3.0824,0,6.1575,0.9452,8.7787,2.8038L87.3789,69.0869C83.1733,63.1567,83.7099,54.8707,89.0196,49.5605z M110.5142,71.0552
		c-2.8706,2.8706-6.6875,4.4517-10.7471,4.4517c-3.573,0-6.9563-1.2271-9.674-3.4779l21.3948-21.3948
		c2.2508,2.7177,3.4779,6.101,3.4779,9.674C114.9659,64.3677,113.3848,68.1846,110.5142,71.0552z"/>
	<g>
		<path fill="#F5F7F8" d="M146.0528,67.5005c-0.5117,0-1.0239-0.1953-1.4141-0.5859c-0.7812-0.7808-0.7812-2.0474,0-2.8281
			l4.1523-4.1523c0.7803-0.7812,2.0479-0.7812,2.8281,0c0.7812,0.7808,0.7812,2.0474,0,2.8281l-4.1523,4.1523
			C147.0767,67.3052,146.5645,67.5005,146.0528,67.5005z"/>
	</g>
	<g>
		<path fill="#455A64" d="M36.7017,137.73c-1.1045,0-2-0.8955-2-2v-9.5146c0-1.1045,0.8955-2,2-2s2,0.8955,2,2v9.5146
			C38.7017,136.8345,37.8062,137.73,36.7017,137.73z"/>
	</g>
	<path fill="#E8E8E8" d="M55.6714,136.7024v6.237h8.9019c0.1699,0,0.3389,0.0249,0.5024,0.0737l37.3315,11.1743
		c2.0962,0.627,4.2559,0.9341,6.4072,0.9341c4.7671,0,9.4922-1.5083,13.3892-4.3877l3.5182-2.5992
		C104.7424,151.3987,72.3158,142.1737,55.6714,136.7024z"/>
	<path fill="#455A64" d="M171.5152,105.7246c-2.584-2.228-6.2544-2.7437-9.3535-1.311l-33.0681,15.2844
		c-1.6113-1.722-3.8963-2.8059-6.4349-2.8059h-18.7646c-1.3921-4.5991-6.6479-17.3091-22.1782-17.3091
		c-6.7061,0-12.9736,2.8711-17.3462,7.9111H55.812c-0.6013-3.7237-3.829-6.5796-7.7197-6.5796H33.2876
		c-4.3169,0-7.8291,3.5122-7.8291,7.8291v34.9434c0,4.3169,3.5122,7.8291,7.8291,7.8291h14.8047
		c3.2535,0,6.048-1.9958,7.2283-4.8267h8.9597l37.0518,11.0903c2.4453,0.7319,4.9648,1.0908,7.4756,1.0903
		c5.5615,0,11.0762-1.7603,15.6245-5.1206l46.5708-34.4058c2.145-1.585,3.4326-4.022,3.5322-6.687
		C174.6353,109.9922,173.5342,107.4653,171.5152,105.7246z M48.0923,147.5161H33.2876c-2.1113,0-3.8291-1.7178-3.8291-3.8291
		v-34.9434c0-2.1113,1.7178-3.8291,3.8291-3.8291h14.8047c2.1113,0,3.8291,1.7178,3.8291,3.8291v34.9434
		C51.9214,145.7983,50.2036,147.5161,48.0923,147.5161z M168.626,116.1269l-46.5708,34.4058
		c-5.5933,4.1328-12.9111,5.4092-19.5762,3.415l-37.332-11.1743c-0.1865-0.0557-0.3794-0.084-0.5737-0.084h-8.6519v-31.1953h9.3857
		c0.6089,0,1.1846-0.2773,1.564-0.7534c3.625-4.5488,9.0356-7.1577,14.8447-7.1577c15.5044,0,18.5508,15.0391,18.6719,15.6748
		c0.1763,0.9473,1.0029,1.6343,1.9663,1.6343h20.3047c2.6597,0,4.8237,2.1641,4.8237,4.8242c0,2.6597-2.1641,4.8237-4.8237,4.8237
		H93.3662c-1.1045,0-2,0.8955-2,2s0.8955,2,2,2h29.2925c4.8652,0,8.8237-3.9585,8.8237-8.8237c0-0.8837-0.134-1.736-0.3768-2.5415
		l32.7347-15.1304c1.6768-0.7759,3.6646-0.4966,5.063,0.7095c1.0933,0.9424,1.689,2.3101,1.6348,3.7524
		C170.4839,113.9492,169.7871,115.269,168.626,116.1269z"/>
</g>
</svg>
