<?xml version="1.0" encoding="utf-8"?>
<!-- Generator: Adobe Illustrator 27.3.1, SVG Export Plug-In . SVG Version: 6.00 Build 0)  -->
<svg version="1.1" id="Layer_1" xmlns="http://www.w3.org/2000/svg" xmlns:xlink="http://www.w3.org/1999/xlink" x="0px" y="0px"
	 viewBox="0 0 200 200" enable-background="new 0 0 200 200" xml:space="preserve">
<g>
	<path fill="#F5F7F8" d="M76.9009,119.8892l-24.7168-14.6597c-1.0239-0.6055-2.2568-0.7334-3.3838-0.3481
		c-1.1255,0.3857-2.021,1.2427-2.458,2.3506c-0.6396,1.626-0.1694,3.4722,1.1704,4.5942l19.1846,16.0591
		c0.687,0.5752,0.7783,1.6021,0.2031,2.2891s-1.6025,0.7773-2.2891,0.2031l-19.1846-16.0591
		c-2.4146-2.021-3.2617-5.3477-2.1079-8.2773c0.2104-0.5352,0.499-1.061,0.8569-1.563l0.124-0.1733L32.5596,77.5859
		c-0.8018-1.8252-2.6084-3.0044-4.6016-3.0044c-1.5483,0-2.9863,0.6968-3.9448,1.9116c-0.959,1.2144-1.3032,2.7749-0.9443,4.2808
		l9.1196,38.2324c0.7979,3.3452,2.7515,6.3257,5.5093,8.3984l19.1284,13.6025c2.5591,1.8193,3.5137,5.2334,2.2705,8.1177
		l-4.4429,10.2988h31.5264v-23.2417C86.1802,129.5273,82.6245,123.2842,76.9009,119.8892z"/>
	<path fill="#F5F7F8" d="M29.3516,71.4668l0.2515,0.0513c2.6411,0.5376,4.8584,2.3174,5.9321,4.7603l11.3701,25.877l0.4307-0.1836
		c0.1348-0.0576,0.2705-0.1162,0.4106-0.1646c1.4634-0.502,3.0239-0.5249,4.5117-0.0669l0.7061,0.2173L40.2183,65.0449
		c-1.0132-2.936-4.0464-4.5767-7.062-3.8193c-2.9888,0.7529-4.9219,3.7222-4.4014,6.7607L29.3516,71.4668z"/>
	<path fill="#F5F7F8" d="M175.9868,76.4932c-0.9585-1.2148-2.3965-1.9116-3.9448-1.9116c-1.9932,0-3.7998,1.1792-4.6016,3.0044
		l-11.7402,26.7188l0.124,0.1733c0.3579,0.5015,0.646,1.0278,0.8569,1.5635c1.1538,2.9297,0.3066,6.2559-2.1079,8.2769
		l-19.1846,16.0591c-0.3335,0.2793-0.7583,0.4146-1.1865,0.3726c-0.4326-0.0381-0.8237-0.2427-1.1025-0.5757
		c-0.5752-0.687-0.4839-1.7139,0.2031-2.2891l19.1846-16.0591c1.3403-1.1221,1.8105-2.9683,1.1704-4.5938
		c-0.4365-1.1084-1.3325-1.9653-2.458-2.3511c-1.126-0.3853-2.3599-0.2583-3.3838,0.3481l-24.7168,14.6597
		c-5.7236,3.395-9.2793,9.6382-9.2793,16.293v23.2417h31.5264l-4.4429-10.2988c-1.2432-2.8843-0.2886-6.2983,2.2705-8.1177
		l19.1792-13.6396c2.7222-2.0469,4.6606-5.0161,5.4585-8.3613l9.1196-38.2324C177.29,79.2681,176.9458,77.7075,175.9868,76.4932z"/>
	<path fill="#F5F7F8" d="M152.2534,101.8071v0.0005c0.1401,0.0479,0.2759,0.1064,0.4106,0.1641l0.4307,0.1836l11.3701-25.877
		c1.0737-2.4429,3.291-4.2227,5.9321-4.7603l0.2515-0.0513l0.5967-3.4805c0.5205-3.0386-1.4126-6.0078-4.4019-6.7607
		c-3.0132-0.7573-6.0479,0.8843-7.0615,3.8193l-12.7461,36.9126l0.7061-0.2173C149.2295,101.2822,150.79,101.3052,152.2534,101.8071
		z"/>
	<polygon fill="#29F1A6" points="45.9646,161.0487 94.8793,161.0487 94.8793,177.3289 40.5358,177.3289 	"/>
	<polygon fill="#29F1A6" points="153.3462,161.6814 105.3463,161.6814 105.3463,177.3289 158.5268,177.3289 	"/>
	<path fill="#455A64" d="M58.3828,56.98c1.0522-0.3364,1.6323-1.4619,1.2964-2.5142c-2.6729-8.3618-0.4805-17.4087,5.7217-23.6113
		c4.4048-4.4043,10.2607-6.8301,16.4893-6.8301c6.229,0,12.085,2.4258,16.4902,6.8306l0.8047,0.8042
		c0.7803,0.7803,2.0469,0.7803,2.8271,0l0.8052-0.8047c4.4048-4.4043,10.2607-6.8301,16.4897-6.8301
		c6.2285,0,12.0845,2.4258,16.4893,6.8301c6.6826,6.6831,8.6743,16.6475,5.0737,25.3853c-0.4209,1.0215,0.0659,2.1904,1.0869,2.6113
		c0.2495,0.1025,0.5073,0.1514,0.7612,0.1514c0.7861,0,1.5322-0.4668,1.8501-1.2383c4.2183-10.2363,1.8848-21.9092-5.9438-29.7378
		c-5.1597-5.1602-12.02-8.002-19.3174-8.002c-7.0142,0-13.6245,2.6255-18.7085,7.4106c-5.0845-4.7856-11.6943-7.4106-18.7085-7.4106
		c-7.2974,0-14.1577,2.8418-19.3174,8.002c-7.2656,7.2656-9.8345,17.8633-6.7041,27.6572
		C56.2056,56.7354,57.3301,57.3135,58.3828,56.98z"/>
	<path fill="#455A64" d="M130.3042,72.1543c-0.7803-0.7812-2.0479-0.7812-2.8281,0l-26.8774,26.877L72.5239,70.957
		c-0.7803-0.7812-2.0479-0.7812-2.8281,0c-0.7812,0.7808-0.7812,2.0474,0,2.8281l29.4888,29.4888
		c0.3901,0.3906,0.9023,0.5859,1.4141,0.5859s1.0239-0.1953,1.4141-0.5859l28.2915-28.2915
		C131.0854,74.2017,131.0854,72.9351,130.3042,72.1543z"/>
	<path fill="#FF8092" d="M54.21,65.4326h36.8223l4.0503,11.3345c0.2856,0.7998,1.043,1.3271,1.8823,1.3271
		c0.0449,0,0.0898-0.0015,0.1353-0.0044c0.8926-0.0601,1.6367-0.7056,1.8223-1.5806l4.8799-23.0044l4.4038,12.1841
		c0.2861,0.7925,1.0386,1.3203,1.8809,1.3203h35.9697c1.1045,0,2-0.8955,2-2s-0.8955-2-2-2h-34.5659l-6.3096-17.4565
		c-0.3032-0.8398-1.127-1.3784-2.0186-1.3154c-0.8911,0.0615-1.6333,0.7061-1.8188,1.5801l-4.8696,22.957l-2.1494-6.0146
		c-0.2842-0.7959-1.0381-1.3271-1.8833-1.3271H54.21c-1.1045,0-2,0.8955-2,2S53.1055,65.4326,54.21,65.4326z"/>
	<path fill="#1CC983" d="M153.6355,162.5553c-8.1105,5.5152-23.1036,12.6639-47.0144,13.4203
		c-0.4448,0.0141-0.8587,0.0355-1.2748,0.0564v1.2969h53.1805L153.6355,162.5553z"/>
	<path fill="#1CC983" d="M40.5358,177.3289h54.3435v-16.2803c0,0-34.7829,12.2439-54.0955,15.5367L40.5358,177.3289z"/>
	<path fill="#455A64" d="M178.832,74.2471c-1.1577-1.4665-2.7248-2.482-4.4739-2.9652l0.4598-2.6832
		c0.8389-4.8931-2.2754-9.6758-7.0894-10.8882c-4.854-1.2236-9.7407,1.4229-11.3735,6.1514l-13.934,40.3533l-21.1705,12.5563
		c-6.8193,4.0444-11.0557,11.4824-11.0557,19.4106v22.8667h-5.5737c-1.1045,0-2,0.8955-2,2v16.9268c0,1.1045,0.8955,2,2,2h55.5996
		c0.6528,0,1.2646-0.3188,1.6392-0.854c0.374-0.5352,0.4634-1.2192,0.2393-1.8325l-6.1851-16.9268
		c-0.2881-0.7886-1.0386-1.3135-1.8784-1.3135h-4.9036l-4.9001-11.3594c-0.5708-1.3242-0.1323-2.8921,1.043-3.728l19.2134-13.665
		c3.4233-2.5728,5.8555-6.2837,6.8491-10.4492l9.1196-38.2324C181.0752,79.0234,180.4829,76.3379,178.832,74.2471z
		 M160.1362,65.1675c0.9502-2.7505,3.7964-4.2871,6.6157-3.5781c2.7998,0.7051,4.6113,3.4873,4.1235,6.3335l-0.5531,3.2277
		c-2.7186,0.5535-5.0566,2.3733-6.2008,4.9769l-11.2212,25.5378c-0.1735-0.0741-0.3455-0.151-0.5254-0.2126
		c-1.5505-0.532-3.208-0.5432-4.7435-0.0709L160.1362,65.1675z M157.3604,175.9756h-50.7393v-12.9268h46.0161L157.3604,175.9756z
		 M176.5664,80.687l-9.1196,38.2324c-0.7778,3.2607-2.6821,6.1655-5.3193,8.1484l-19.1709,13.6338
		c-2.7021,1.9214-3.7104,5.5264-2.3975,8.5718l4.2169,9.7754h-30.5811v-22.8667c0-6.5229,3.4854-12.6426,9.0957-15.9702
		l24.7168-14.6597c0.9302-0.5508,2.0474-0.666,3.0708-0.3159c1.0215,0.3501,1.8345,1.1279,2.2305,2.1333
		c0.5811,1.4756,0.1538,3.1509-1.062,4.1689l-19.1846,16.0591c-0.8472,0.709-0.959,1.9702-0.25,2.8174s1.9702,0.959,2.8174,0.25
		l19.1846-16.0591c2.5386-2.125,3.4292-5.6221,2.2163-8.7017c-0.2324-0.5905-0.5403-1.138-0.9009-1.6439l11.6544-26.5236
		c0.7422-1.689,2.4136-2.7803,4.2583-2.7803c1.4326,0,2.7632,0.6445,3.6504,1.769
		C176.5801,77.8496,176.8984,79.2935,176.5664,80.687z"/>
	<path fill="#455A64" d="M95.3789,159.0488h-5.5737v-22.8667c0-7.9282-4.2363-15.3662-11.0557-19.4106L57.579,104.2151
		L43.645,63.8618c-1.6338-4.7285-6.5264-7.375-11.3735-6.1514c-4.814,1.2124-7.9282,5.9951-7.0894,10.8882l0.4598,2.6832
		c-1.7491,0.4832-3.3163,1.4987-4.4739,2.9652c-1.6509,2.0908-2.2432,4.7764-1.625,7.3677l9.1196,38.2324
		c0.9937,4.1655,3.4258,7.8765,6.8916,10.4805l19.1709,13.6338c1.1753,0.8359,1.6138,2.4038,1.043,3.728l-4.9001,11.3594h-4.9036
		c-0.8398,0-1.5903,0.5249-1.8784,1.3135l-6.1851,16.9268c-0.2241,0.6133-0.1348,1.2974,0.2393,1.8325
		c0.3745,0.5352,0.9863,0.854,1.6392,0.854h55.5996c1.1045,0,2-0.8955,2-2v-16.9268
		C97.3789,159.9443,96.4834,159.0488,95.3789,159.0488z M33.248,61.5894c2.8203-0.7109,5.6665,0.8271,6.6157,3.5781l12.5048,36.2142
		c-1.5353-0.4725-3.1923-0.4614-4.7435,0.071c-0.1799,0.0616-0.3519,0.1385-0.5254,0.2126L35.8784,76.1274
		c-1.1442-2.6036-3.4823-4.4235-6.2008-4.9769l-0.5531-3.2277C28.6367,65.0767,30.4482,62.2944,33.248,61.5894z M59.4409,149.2734
		c1.313-3.0454,0.3047-6.6504-2.3975-8.5718L37.915,127.0991c-2.6797-2.0142-4.584-4.9189-5.3618-8.1797L23.4336,80.687
		c-0.332-1.3936-0.0137-2.8374,0.874-3.9614c0.8872-1.1245,2.2178-1.769,3.6504-1.769c1.8447,0,3.5161,1.0913,4.2583,2.7803
		l11.6543,26.5235c-0.3607,0.5058-0.6685,1.0532-0.9009,1.6435c-1.2129,3.0801-0.3223,6.5771,2.2163,8.7021l19.1846,16.0591
		c0.8467,0.708,2.1079,0.5972,2.8174-0.25c0.709-0.8472,0.5972-2.1084-0.25-2.8174l-19.1846-16.0591
		c-1.2158-1.0181-1.6431-2.6934-1.062-4.1694c0.396-1.0049,1.209-1.7827,2.2305-2.1328c1.0234-0.3501,2.1416-0.2349,3.0708,0.3159
		l24.7168,14.6597c5.6104,3.3276,9.0957,9.4473,9.0957,15.9702v22.8667H55.2241L59.4409,149.2734z M93.3789,175.9756H42.6396
		l4.7231-12.9268h46.0161V175.9756z"/>
</g>
</svg>
