<?xml version="1.0" encoding="utf-8"?>
<!-- Generator: Adobe Illustrator 27.3.1, SVG Export Plug-In . SVG Version: 6.00 Build 0)  -->
<svg version="1.1" id="Layer_1" xmlns="http://www.w3.org/2000/svg" xmlns:xlink="http://www.w3.org/1999/xlink" x="0px" y="0px"
	 viewBox="0 0 200 200" enable-background="new 0 0 200 200" xml:space="preserve">
<g>
	<path fill="#F5F7F8" d="M118.5254,97.4238c-0.6885,0.1855-1.4258-0.0117-1.9316-0.5176c-0.5049-0.5049-0.7031-1.2412-0.5176-1.9316
		l2.4473-9.1367c-2.1572-3.2754-3.293-6.9521-3.293-10.6904c0-8.309,5.5374-15.5801,13.7609-19.5078
		c-0.0042-0.0525-0.0157-0.1028-0.0157-0.1562V39.4707c0-8.2354-6.6992-14.9346-14.9346-14.9346H48.1934
		c-8.2354,0-14.9346,6.6992-14.9346,14.9346v121.0586c0,4.854,2.3379,9.1614,5.9354,11.8907
		c0.9612-14.4115,9.2145-26.851,21.098-33.661c0.1189-0.09,0.2466-0.171,0.3884-0.2346c0.0403-0.0181,0.0774-0.0383,0.1174-0.0566
		c0.5532-0.3069,1.1147-0.5996,1.6829-0.882c6.8828-4.1134,8.335-11.6366,8.6206-13.8973
		c-4.3683-3.0605-7.9373-7.9338-10.0723-14.0791c-3.7578-0.6445-6.627-3.9258-6.627-7.8652c0-2.7434,1.3867-5.2021,3.5692-6.6449
		c-2.7234-3.8868-6.5908-11.3251-4.2821-20.0026c2.666-10.0283,10.9531-12.0801,16.0225-11.7666
		c1.7275-2.6943,6.8057-7.8809,19.2725-4.875c7.2129,1.7393,12.6709,5.6494,15.7832,11.3086
		c3.6472,6.6304,3.9258,15.3757,0.8398,25.3718c2.1675,1.4606,3.5381,3.9219,3.5381,6.6086c0,3.6553-2.5283,6.8125-5.9648,7.7158
		c-2.3912,6.9812-6.6278,12.3325-11.7878,15.2764c0.6118,3.1864,2.7953,10.4514,10.2419,13.7881
		c0.2078,0.093,0.3853,0.2229,0.5427,0.3701c11.7572,6.8386,19.908,19.2092,20.8627,33.5255
		c3.5975-2.7294,5.9354-7.0367,5.9354-11.8907V94.7178c0-0.0177,0.0048-0.0342,0.0051-0.0518
		c-0.0203-0.0095-0.0415-0.0176-0.0618-0.0273L118.5254,97.4238z"/>
	<g>
		<path fill="#E8E8E8" d="M33.2588,151.3319v9.1974c0,4.854,2.3379,9.1614,5.9354,11.8907
			c0.5355-8.0299,3.3398-15.444,7.7697-21.6167C42.5513,151.2473,37.9829,151.4393,33.2588,151.3319z"/>
		<path fill="#E8E8E8" d="M128.9756,160.5293v-55.4506c-4.7075,5.795-16.0388,18.3683-33.2758,28.9542
			c1.4639,1.7422,3.385,3.3489,5.9349,4.4915c0.2078,0.093,0.3853,0.2229,0.5427,0.3701
			c11.7572,6.8386,19.908,19.2092,20.8627,33.5255C126.6377,169.6907,128.9756,165.3833,128.9756,160.5293z"/>
	</g>
	<path fill="#9FE5FB" d="M142.9863,56.5439c-13.0986,0-23.7559,8.3457-23.7559,18.6035c0,3.1963,1.0664,6.3574,3.083,9.1416
		c0.3535,0.4883,0.4688,1.1094,0.3125,1.6914l-1.79,6.6836l7.7764-2.084c0.1699-0.0459,0.3438-0.0684,0.5176-0.0684
		c0.3145,0,0.627,0.0742,0.9111,0.2197c3.8613,1.9756,8.3379,3.0205,12.9453,3.0205c13.0986,0,23.7549-8.3457,23.7549-18.6045
		C166.7412,64.8896,156.085,56.5439,142.9863,56.5439z"/>
	<path fill="#455A64" d="M48.1934,179.4639h65.8477c10.4404,0,18.9346-8.4941,18.9346-18.9346V96.222
		c3.1766,1.0001,6.5626,1.5299,10.0107,1.5299c15.3037,0,27.7549-10.1406,27.7549-22.6045S158.29,52.5439,142.9863,52.5439
		c-3.5291,0-6.9028,0.5449-10.0107,1.5273V39.4707c0-10.4404-8.4941-18.9346-18.9346-18.9346H48.1934
		c-10.4404,0-18.9346,8.4941-18.9346,18.9346v121.0586C29.2588,170.9697,37.7529,179.4639,48.1934,179.4639z M48.1934,175.4639
		c-1.7883,0-3.4963-0.3323-5.0869-0.9111c0.2446-13.6437,7.7043-25.552,18.7234-32.0654c-0.9067,2.0645-1.3634,4.168-1.5898,5.9207
		c-4.1912,0.8411-7.3591,4.5488-7.3591,8.9836v10.5264c0,1.1045,0.8955,2,2,2h4.1553c1.1045,0,2-0.8955,2-2s-0.8955-2-2-2h-2.1553
		v-8.5264c0-2.8477,2.3164-5.1641,5.1641-5.1641s5.165,2.3164,5.165,5.1641v8.5264h-2.0283c-1.1045,0-2,0.8955-2,2s0.8955,2,2,2
		H69.21c1.1045,0,2-0.8955,2-2v-10.5264c0-4.2866-2.9633-7.8854-6.9465-8.8812c0.52-3.4628,2.1541-8.3234,7.1306-10.0316
		c3.1052-0.822,6.363-1.2649,9.7231-1.2649c3.2227,0,6.3516,0.4062,9.3418,1.1644c0.0464,0.0194,0.0883,0.045,0.1367,0.0612
		c4.847,1.606,6.5604,6.1763,7.1555,9.6228c-3.2622,1.0992-5.6213,4.1809-5.6213,7.8088c0,4.5459,3.6992,8.2451,8.2451,8.2451
		s8.2441-3.6992,8.2441-8.2451c0-4.0742-2.9735-7.4585-6.8625-8.1189c-0.2563-1.6431-0.7205-3.5293-1.5474-5.3774
		c11.1256,6.4879,18.6726,18.4542,18.9187,32.178c-1.5906,0.5789-3.2986,0.9111-5.0869,0.9111H48.1934z M102.9513,89.4363
		c-3.5071-7.5756-8.8297-8.8701-21.6661-9.1941c-5.6289-0.1416-10.0762-1.5449-13.2178-4.1699
		c-0.4268-0.3564-0.9844-0.5156-1.5371-0.4482c-0.5518,0.0703-1.0498,0.3691-1.373,0.8223
		c-2.7568,3.8652-4.657,8.5938-5.572,13.6805c-2.0269-3.7352-3.4667-8.6027-2.0305-14.0018
		c2.7256-10.2549,12.5264-8.7559,12.9355-8.6846c0.9414,0.168,1.8652-0.3809,2.2129-1.2627
		c0.1123-0.2803,2.8633-6.8408,15.3438-3.834c6.0898,1.4678,10.6602,4.7012,13.2168,9.3477
		C103.8367,76.3701,104.3932,82.4302,102.9513,89.4363z M61.4443,97.8809c0.876-0.2129,1.502-0.9844,1.5283-1.8857
		c0.168-5.6963,1.6924-11.1299,4.3281-15.5264c3.6387,2.3643,8.2969,3.6309,13.8828,3.7715
		c14.8604,0.376,17.1123,1.7686,20.0791,12.4189c0.0042,0.0149,0.0129,0.0275,0.0175,0.0422
		c0.0375,0.1233,0.0867,0.2419,0.1469,0.3557c0.0232,0.0435,0.0507,0.0828,0.0767,0.1243c0.0525,0.0836,0.1095,0.1631,0.174,0.2383
		c0.0331,0.0386,0.0665,0.0752,0.1023,0.1111c0.0714,0.0717,0.1493,0.1362,0.2321,0.197c0.0369,0.027,0.0713,0.0557,0.1101,0.0802
		c0.1005,0.0636,0.2087,0.1163,0.3225,0.1622c0.0234,0.0094,0.0432,0.0251,0.0671,0.0337c1.5752,0.5674,2.6338,2.0703,2.6338,3.7402
		c0,2.0576-1.6064,3.7979-3.6572,3.9629c-0.8184,0.0654-1.5127,0.624-1.7529,1.4092c-2.9951,9.8174-9.9258,16.1602-17.6553,16.1602
		c-7.7246,0-14.6533-6.3369-17.6514-16.1436c-0.2578-0.8418-1.0352-1.415-1.9131-1.415c-0.0146,0-0.0293,0-0.0439,0.001
		l-0.0889,0.0059c-2.1953,0-3.9805-1.7852-3.9805-3.9805C58.4023,99.9023,59.6533,98.3135,61.4443,97.8809z M82.0801,127.2764
		c1.9153,0,3.7816-0.3176,5.5774-0.8927c0.4824,2.0851,1.4521,5.0663,3.3544,8.0176c-3.1752-0.7694-6.4862-1.1874-9.8947-1.1874
		c-3.3541,0-6.6133,0.4064-9.7424,1.1521c2.0553-3.2002,3.0046-6.4617,3.4348-8.6158
		C77.1106,126.7352,79.5541,127.2764,82.0801,127.2764z M100.375,151.627c2.3398,0,4.2441,1.9043,4.2441,4.2441
		c0,2.3408-1.9043,4.2451-4.2441,4.2451c-2.3408,0-4.2451-1.9043-4.2451-4.2451C96.1299,153.5312,98.0342,151.627,100.375,151.627z
		 M166.7412,75.1475c0,10.2588-10.6562,18.6045-23.7549,18.6045c-4.6074,0-9.084-1.0449-12.9453-3.0205
		c-0.2842-0.1455-0.5967-0.2197-0.9111-0.2197c-0.1738,0-0.3477,0.0225-0.5176,0.0684l-7.7764,2.084l1.79-6.6836
		c0.1562-0.582,0.041-1.2031-0.3125-1.6914c-2.0166-2.7842-3.083-5.9453-3.083-9.1416c0-10.2578,10.6572-18.6035,23.7559-18.6035
		S166.7412,64.8896,166.7412,75.1475z M33.2588,39.4707c0-8.2354,6.6992-14.9346,14.9346-14.9346h65.8477
		c8.2354,0,14.9346,6.6992,14.9346,14.9346v16.0127c0,0.0535,0.0116,0.1038,0.0157,0.1562
		c-8.2235,3.9277-13.7609,11.1989-13.7609,19.5078c0,3.7383,1.1357,7.415,3.293,10.6904l-2.4473,9.1367
		c-0.1855,0.6904,0.0127,1.4268,0.5176,1.9316c0.5059,0.5059,1.2432,0.7031,1.9316,0.5176l10.3936-2.7852
		c0.0203,0.0098,0.0415,0.0178,0.0618,0.0273c-0.0004,0.0176-0.0051,0.0341-0.0051,0.0518v65.8115
		c0,4.854-2.3379,9.1614-5.9354,11.8907c-0.9547-14.3163-9.1055-26.6869-20.8627-33.5255c-0.1575-0.1472-0.335-0.2771-0.5427-0.3701
		c-7.4467-3.3367-9.6301-10.6017-10.2419-13.7881c5.16-2.9438,9.3966-8.2952,11.7878-15.2764
		c3.4365-0.9033,5.9648-4.0605,5.9648-7.7158c0-2.6868-1.3706-5.1481-3.5381-6.6086c3.0859-9.9961,2.8074-18.7415-0.8398-25.3718
		c-3.1123-5.6592-8.5703-9.5693-15.7832-11.3086c-12.4668-3.0059-17.5449,2.1807-19.2725,4.875
		c-5.0693-0.3135-13.3564,1.7383-16.0225,11.7666c-2.3087,8.6775,1.5587,16.1157,4.2821,20.0026
		c-2.1825,1.4427-3.5692,3.9015-3.5692,6.6449c0,3.9395,2.8691,7.2207,6.627,7.8652c2.135,6.1453,5.704,11.0186,10.0723,14.0791
		c-0.2856,2.2607-1.7378,9.7839-8.6206,13.8973c-0.5681,0.2823-1.1296,0.5751-1.6829,0.882
		c-0.04,0.0183-0.0771,0.0386-0.1174,0.0566c-0.1418,0.0636-0.2695,0.1447-0.3884,0.2346
		c-11.8835,6.8101-20.1368,19.2495-21.098,33.661c-3.5975-2.7294-5.9354-7.0367-5.9354-11.8907V39.4707z"/>
	<path fill="#455A64" d="M73.6807,39.165h14.873c1.1045,0,2-0.8955,2-2s-0.8955-2-2-2h-14.873c-1.1045,0-2,0.8955-2,2
		S72.5762,39.165,73.6807,39.165z"/>
	<path fill="#455A64" d="M143.1387,76.2939h0.9873c1.1045,0,2-0.8955,2-2s-0.8955-2-2-2h-0.9873c-1.1045,0-2,0.8955-2,2
		S142.0342,76.2939,143.1387,76.2939z"/>
	<path fill="#455A64" d="M152.8184,76.2939h0.9883c1.1045,0,2-0.8955,2-2s-0.8955-2-2-2h-0.9883c-1.1045,0-2,0.8955-2,2
		S151.7139,76.2939,152.8184,76.2939z"/>
	<path fill="#455A64" d="M133.458,76.2939h0.9883c1.1045,0,2-0.8955,2-2s-0.8955-2-2-2h-0.9883c-1.1045,0-2,0.8955-2,2
		S132.3535,76.2939,133.458,76.2939z"/>
	<path fill="#F5F7F8" d="M62.3828,105.7246l0.0889-0.0059c0.0146-0.001,0.0293-0.001,0.0439-0.001
		c0.8779,0,1.6553,0.5732,1.9131,1.415c2.998,9.8066,9.9268,16.1436,17.6514,16.1436c7.7295,0,14.6602-6.3428,17.6553-16.1602
		c0.2402-0.7852,0.9346-1.3438,1.7529-1.4092c2.0508-0.165,3.6572-1.9053,3.6572-3.9629c0-1.6699-1.0586-3.1729-2.6338-3.7402
		c-0.0239-0.0085-0.0437-0.0243-0.0671-0.0337c-0.1138-0.0459-0.222-0.0986-0.3225-0.1622
		c-0.0388-0.0245-0.0732-0.0532-0.1101-0.0802c-0.0828-0.0608-0.1606-0.1254-0.2321-0.197
		c-0.0358-0.0359-0.0692-0.0725-0.1023-0.1111c-0.0645-0.0752-0.1215-0.1547-0.174-0.2383
		c-0.026-0.0415-0.0535-0.0808-0.0767-0.1243c-0.0602-0.1138-0.1094-0.2324-0.1469-0.3557
		c-0.0045-0.0148-0.0133-0.0273-0.0175-0.0422c-2.9668-10.6504-5.2188-12.043-20.0791-12.4189
		c-5.5859-0.1406-10.2441-1.4072-13.8828-3.7715c-2.6357,4.3965-4.1602,9.8301-4.3281,15.5264
		c-0.0264,0.9014-0.6523,1.6729-1.5283,1.8857c-1.791,0.4326-3.042,2.0215-3.042,3.8633
		C58.4023,103.9395,60.1875,105.7246,62.3828,105.7246z"/>
	<path fill="#9FE5FB" d="M66.5303,75.624c0.5527-0.0674,1.1104,0.0918,1.5371,0.4482c3.1416,2.625,7.5889,4.0283,13.2178,4.1699
		c12.8364,0.324,18.1591,1.6185,21.6661,9.1941c1.4419-7.0061,0.8854-13.0662-1.6876-17.7449
		c-2.5566-4.6465-7.127-7.8799-13.2168-9.3477c-12.4805-3.0068-15.2314,3.5537-15.3438,3.834
		c-0.3477,0.8818-1.2715,1.4307-2.2129,1.2627c-0.4092-0.0713-10.21-1.5703-12.9355,8.6846
		c-1.4362,5.3992,0.0037,10.2666,2.0305,14.0018c0.915-5.0868,2.8152-9.8153,5.572-13.6805
		C65.4805,75.9932,65.9785,75.6943,66.5303,75.624z"/>
	<path fill="#F5F7F8" d="M91.0118,134.4012c-1.9022-2.9513-2.8719-5.9325-3.3544-8.0176c-1.7958,0.5751-3.6621,0.8927-5.5774,0.8927
		c-2.526,0-4.9695-0.5411-7.2705-1.5262c-0.4302,2.1542-1.3795,5.4156-3.4348,8.6158c3.1292-0.7457,6.3883-1.1521,9.7424-1.1521
		C84.5256,133.2139,87.8367,133.6318,91.0118,134.4012z"/>
	<path fill="#29F1A6" d="M100.2092,142.3748c0.8269,1.8481,1.291,3.7344,1.5474,5.3774c3.889,0.6604,6.8625,4.0447,6.8625,8.1189
		c0,4.5459-3.6982,8.2451-8.2441,8.2451s-8.2451-3.6992-8.2451-8.2451c0-3.6279,2.3591-6.7096,5.6213-7.8088
		c-0.5951-3.4465-2.3085-8.0168-7.1555-9.6228c-0.0485-0.0161-0.0903-0.0417-0.1367-0.0612
		c-2.9902-0.7582-6.1191-1.1644-9.3418-1.1644c-3.3601,0-6.6179,0.4429-9.7231,1.2649c-4.9766,1.7083-6.6106,6.5688-7.1306,10.0316
		c3.9833,0.9958,6.9465,4.5946,6.9465,8.8812v10.5264c0,1.1045-0.8955,2-2,2h-4.0283c-1.1045,0-2-0.8955-2-2s0.8955-2,2-2H67.21
		v-8.5264c0-2.8477-2.3174-5.1641-5.165-5.1641s-5.1641,2.3164-5.1641,5.1641v8.5264h2.1553c1.1045,0,2,0.8955,2,2s-0.8955,2-2,2
		h-4.1553c-1.1045,0-2-0.8955-2-2v-10.5264c0-4.4348,3.168-8.1426,7.3591-8.9836c0.2264-1.7527,0.6831-3.8562,1.5898-5.9207
		c-11.019,6.5134-18.4788,18.4218-18.7234,32.0654c1.5906,0.5789,3.2986,0.9111,5.0869,0.9111h65.8477
		c1.7883,0,3.4963-0.3323,5.0869-0.9111C118.8818,160.829,111.3348,148.8627,100.2092,142.3748z"/>
	<path fill="#F5F7F8" d="M100.375,160.1162c2.3398,0,4.2441-1.9043,4.2441-4.2451c0-2.3398-1.9043-4.2441-4.2441-4.2441
		c-2.3408,0-4.2451,1.9043-4.2451,4.2441C96.1299,158.2119,98.0342,160.1162,100.375,160.1162z"/>
	<path fill="#65D1EA" d="M121.811,83.5398c0.1631,0.2515,0.3245,0.5035,0.5024,0.7493c0.3535,0.4883,0.4688,1.1094,0.3125,1.6914
		l-1.79,6.6836l7.7764-2.084c0.1699-0.0459,0.3438-0.0684,0.5176-0.0684c0.3145,0,0.627,0.0742,0.9111,0.2197
		c3.8613,1.9756,8.3379,3.0205,12.9453,3.0205c13.0986,0,23.7549-8.3457,23.7549-18.6045c0-3.7729-1.4456-7.2852-3.9202-10.2206
		C161.6948,72.5371,156.345,89.895,121.811,83.5398z"/>
	<path fill="#65D1EA" d="M88.0469,62.3438c-1.0074-0.2427-1.9449-0.4172-2.8293-0.5435c4.9302,5.6123,11.6234,16.205-5.666,18.3473
		c0.5671,0.0428,1.1401,0.0797,1.7336,0.0946c12.8364,0.324,18.1591,1.6185,21.6661,9.1941
		c1.4419-7.0061,0.8854-13.0662-1.6876-17.7449C98.707,67.0449,94.1367,63.8115,88.0469,62.3438z"/>
	<path fill="#E8E8E8" d="M99.3518,108.2534c-0.4873,0.7793-11.0571,17.1802-30.6531,7.5054
		c3.507,4.7258,8.2656,7.5176,13.3813,7.5176C89.5043,123.2764,96.1809,117.415,99.3518,108.2534z"/>
	<path fill="#1CC983" d="M104.7561,145.5068c0.0614,0.7852,0.0905,1.9463-0.0513,3.3684c2.3447,1.4529,3.9143,4.0398,3.9143,6.9958
		c0,4.5459-3.6982,8.2451-8.2441,8.2451c-1.0996,0-2.1477-0.2205-3.1079-0.613c-5.1428,4.9315-13.7158,9.5305-27.9309,11.9607
		h44.7048c1.7883,0,3.4963-0.3323,5.0869-0.9111C118.9172,162.7981,113.3402,152.3447,104.7561,145.5068z"/>
</g>
</svg>
