<?xml version="1.0" encoding="utf-8"?>
<!-- Generator: Adobe Illustrator 27.3.1, SVG Export Plug-In . SVG Version: 6.00 Build 0)  -->
<svg version="1.1" id="Layer_1" xmlns="http://www.w3.org/2000/svg" xmlns:xlink="http://www.w3.org/1999/xlink" x="0px" y="0px"
	 viewBox="0 0 200 200" enable-background="new 0 0 200 200" xml:space="preserve">
<g>
	<g>
		<path fill="#F7BA31" d="M131.8766,34.3179h18.7052c4.6093,0,8.3459,3.7366,8.3459,8.3459v133.2089
			c0,4.6093-3.7366,8.3459-8.3459,8.3459H49.4182c-4.6093,0-8.3459-3.7366-8.3459-8.3459V42.6639
			c0-4.6093,3.7366-8.3459,8.3459-8.3459H67.32"/>
	</g>
	<g>
		<path fill="#F5F7F8" d="M132.8493,46.3181h14.0784v92.8305c0,18.264-14.8059,33.0699-33.0699,33.0699H53.0723V46.3181h13.5922"/>
	</g>
	<g>
		<path fill="#29F1A6" d="M110.7529,26.3159c0-5.8181-4.7165-10.5346-10.5346-10.5346s-10.5346,4.7165-10.5346,10.5346H72.3468
			c-2.3325,0-4.2234,1.8909-4.2234,4.2234v18.5135c0,2.3325,1.8909,4.2234,4.2234,4.2234h55.3063
			c2.3325,0,4.2234-1.8909,4.2234-4.2234V30.5393c0-2.3325-1.8909-4.2234-4.2234-4.2234H110.7529z"/>
	</g>
	<g>
		<path fill="#1CC983" d="M127.6531,53.2762c2.3326,0,4.2234-1.8909,4.2234-4.2234V30.5393c0-2.3325-1.8909-4.2234-4.2234-4.2234
			h-0.636c-8.1241,7.5365-25.479,21.8764-44.6575,26.9603H127.6531z"/>
	</g>
	<g>
		<path fill="#E5A31F" d="M54.8245,184.2187h95.7573c4.6094,0,8.3459-3.7366,8.3459-8.3459v-65.2711
			C141.4979,133.9591,104.8334,174.5349,54.8245,184.2187z"/>
	</g>
	<g>
		<path fill="#E8E8E8" d="M146.9277,139.1486v-18.9927c-19.3684,23.4174-52.8051,53.801-93.8555,50.1364v1.9262h60.7856
			C132.1218,172.2185,146.9277,157.4126,146.9277,139.1486z"/>
	</g>
	<g>
		<path fill="#455A64" d="M110.7246,174.1899h-2.6221c-1.1045,0-2-0.8955-2-2s0.8955-2,2-2h2.6221
			c7.0703,0,12.8228-5.752,12.8228-12.8223v-10.9014c0-1.1045,0.8955-2,2-2h6.5581c7.0703,0,12.8223-5.752,12.8223-12.8223
			c0-1.1045,0.8955-2,2-2s2,0.8955,2,2c0,9.2759-7.5464,16.8223-16.8223,16.8223h-4.5581v8.9014
			C127.5474,166.6436,120.0005,174.1899,110.7246,174.1899z"/>
	</g>
	<path fill="#455A64" d="M150.582,32.3179h-16.7056v-1.7783c0-3.4316-2.7915-6.2236-6.2231-6.2236h-15.0596
		c-0.9604-5.9644-6.1445-10.5347-12.3755-10.5347s-11.415,4.5703-12.3755,10.5347H72.3467c-3.4316,0-6.2231,2.792-6.2231,6.2236
		v1.7783H49.418c-5.7046,0-10.3457,4.6411-10.3457,10.3462v133.2085c0,5.7051,4.6411,10.3462,10.3457,10.3462H150.582
		c5.7046,0,10.3457-4.6411,10.3457-10.3462V42.6641C160.9277,36.959,156.2866,32.3179,150.582,32.3179z M72.3467,55.2764h55.3066
		c3.4316,0,6.2231-2.792,6.2231-6.2236v-0.7344h11.0513v90.8301c0,17.1323-13.938,31.0703-31.0698,31.0703H55.0723V48.3184h11.0513
		v0.7344C66.1235,52.4844,68.915,55.2764,72.3467,55.2764z M70.1235,30.5396c0-1.2261,0.9971-2.2236,2.2231-2.2236h17.3369
		c1.1045,0,2-0.8955,2-2c0-4.7061,3.8286-8.5347,8.5347-8.5347s8.5347,3.8286,8.5347,8.5347c0,1.1045,0.8955,2,2,2h16.9004
		c1.2261,0,2.2231,0.9976,2.2231,2.2236v18.5132c0,1.2261-0.9971,2.2236-2.2231,2.2236H72.3467
		c-1.2261,0-2.2231-0.9976-2.2231-2.2236V30.5396z M156.9277,175.8726c0,3.4995-2.8467,6.3462-6.3457,6.3462H49.418
		c-3.499,0-6.3457-2.8467-6.3457-6.3462V42.6641c0-3.4995,2.8467-6.3462,6.3457-6.3462h16.7056v8.0005H53.0723
		c-1.1045,0-2,0.8955-2,2v125.9004c0,1.1045,0.8955,2,2,2h60.7856c19.3374,0,35.0698-15.7324,35.0698-35.0703V46.3184
		c0-1.1045-0.8955-2-2-2h-13.0513v-8.0005h16.7056c3.499,0,6.3457,2.8467,6.3457,6.3462V175.8726z"/>
	<g>
		<path fill="#F5F7F8" d="M120.0879,43.8579H79.9121c-1.1045,0-2-0.8955-2-2s0.8955-2,2-2h40.1758c1.1045,0,2,0.8955,2,2
			S121.1924,43.8579,120.0879,43.8579z"/>
	</g>
	<g>
		<path fill="#FF8092" d="M95.0825,105.6621c-0.9087,0-1.708-0.6152-1.936-1.502l-5.3228-20.7007H70.6606c-1.1045,0-2-0.8955-2-2
			s0.8955-2,2-2h18.7139c0.9126,0,1.7095,0.6182,1.937,1.502l3.3882,13.1763l5.3911-31.2036
			c0.1631-0.9453,0.9746-1.6416,1.9331-1.6592c0.9561-0.0459,1.7959,0.6475,1.9941,1.5854l4.2495,20.0879h21.0718
			c1.1045,0,2,0.8955,2,2s-0.8955,2-2,2h-22.6929c-0.9448,0-1.7612-0.6616-1.9565-1.5859l-2.4302-11.4878l-5.2056,30.1279
			c-0.1606,0.9292-0.9482,1.6201-1.8901,1.6582C95.1367,105.6616,95.1099,105.6621,95.0825,105.6621z"/>
	</g>
	<g>
		<path fill="#455A64" d="M78.9219,120.4639h-8.2612c-1.1045,0-2-0.8955-2-2s0.8955-2,2-2h8.2612c1.1045,0,2,0.8955,2,2
			S80.0264,120.4639,78.9219,120.4639z"/>
	</g>
	<g>
		<path fill="#455A64" d="M131.8765,120.4639H90.1147c-1.1045,0-2-0.8955-2-2s0.8955-2,2-2h41.7617c1.1045,0,2,0.8955,2,2
			S132.981,120.4639,131.8765,120.4639z"/>
	</g>
	<g>
		<path fill="#455A64" d="M78.9219,134.6309h-8.2612c-1.1045,0-2-0.8955-2-2s0.8955-2,2-2h8.2612c1.1045,0,2,0.8955,2,2
			S80.0264,134.6309,78.9219,134.6309z"/>
	</g>
	<g>
		<path fill="#455A64" d="M131.8765,134.6309H90.1147c-1.1045,0-2-0.8955-2-2s0.8955-2,2-2h41.7617c1.1045,0,2,0.8955,2,2
			S132.981,134.6309,131.8765,134.6309z"/>
	</g>
	<g>
		<path fill="#455A64" d="M78.9219,148.7983h-8.2612c-1.1045,0-2-0.8955-2-2s0.8955-2,2-2h8.2612c1.1045,0,2,0.8955,2,2
			S80.0264,148.7983,78.9219,148.7983z"/>
	</g>
	<g>
		<path fill="#455A64" d="M112.9658,148.7983H90.1147c-1.1045,0-2-0.8955-2-2s0.8955-2,2-2h22.8511c1.1045,0,2,0.8955,2,2
			S114.0703,148.7983,112.9658,148.7983z"/>
	</g>
</g>
</svg>
