<svg xmlns="http://www.w3.org/2000/svg" viewBox="0 0 300 80" role="img" aria-labelledby="title desc">
  <title id="title">ZADMED Logo</title>
  <desc id="desc">ZADMED brand mark with a medical cross and wordmark.</desc>
  <defs>
    <linearGradient id="g" x1="0" x2="1" y1="0" y2="1">
      <stop offset="0" stop-color="#006c7a"/>
      <stop offset="1" stop-color="#1ea7a8"/>
    </linearGradient>
  </defs>
  <rect x="8" y="8" width="64" height="64" rx="16" fill="url(#g)"/>
  <path d="M40 24c2.8 0 5 2.2 5 5v8h8c2.8 0 5 2.2 5 5s-2.2 5-5 5h-8v8c0 2.8-2.2 5-5 5s-5-2.2-5-5v-8h-8c-2.8 0-5-2.2-5-5s2.2-5 5-5h8v-8c0-2.8 2.2-5 5-5z" fill="#ffffff"/>
  <text x="86" y="47" font-size="34" font-weight="700" font-family="Segoe UI, Arial, sans-serif" fill="#0e2438">ZADMED</text>
</svg>
